# xmcd CD database file
#
# Track frame offsets:
#	150
#	64946
#	82821
#	125212
#	167914
#
# Disc length: 2395 seconds
#
# Revision: 0
# Processed by: cddbd v1.5.2PL0 Copyright (c) Steve Scherf et al.
# Submitted via: CDex 1.51
#
DISCID=40095905
DTITLE=Schlachtfest Session II - Schlachtfest Session II
DYEAR=2006
DGENRE=Jazz
TTITLE0=Den Daumen einklemmen...
TTITLE1=Ich kann's und du kannst es auch
TTITLE2=Ääh...
TTITLE3=Buch angucken
TTITLE4=Bollerwagen fahren
EXTD=YEAR: 2006
EXTT0=
EXTT1=
EXTT2=
EXTT3=
EXTT4=
PLAYORDER=
